<?xml version="1.0" standalone="no"?>
<!DOCTYPE svg PUBLIC "-//W3C//DTD SVG 20010904//EN"
 "http://www.w3.org/TR/2001/REC-SVG-20010904/DTD/svg10.dtd">
<svg version="1.0" xmlns="http://www.w3.org/2000/svg"
 width="311.000000pt" height="311.000000pt" viewBox="0 0 311.000000 311.000000"
 preserveAspectRatio="xMidYMid meet">
<metadata>
Created by potrace 1.14, written by Peter Selinger 2001-2017
</metadata>
<g transform="translate(0.000000,311.000000) scale(0.100000,-0.100000)"
fill="#000000" stroke="none">
<path d="M1450 2613 c-139 -22 -273 -60 -348 -100 -79 -42 -181 -114 -240
-170 -57 -53 -67 -57 -142 -53 -95 4 -194 61 -260 149 -39 51 -40 52 -42 25 0
-16 -2 -36 -3 -44 -2 -25 20 -113 37 -145 25 -46 83 -99 138 -125 27 -13 50
-26 50 -30 0 -4 -20 -49 -44 -101 -78 -169 -105 -290 -104 -470 1 -194 35
-333 127 -515 53 -104 76 -135 181 -247 62 -67 197 -165 289 -211 62 -32 178
-73 225 -80 22 -4 48 -8 60 -11 100 -21 293 -21 392 0 12 3 39 7 60 11 59 8
170 50 251 94 211 114 364 276 461 491 72 160 103 284 107 434 1 66 -1 143 -5
170 -5 28 -12 68 -15 90 -4 22 -11 47 -15 55 -4 8 -8 17 -8 20 2 17 -46 141
-88 229 l-23 46 40 15 c106 42 184 155 188 273 1 37 -2 67 -6 67 -4 -1 -20
-18 -35 -40 -63 -91 -175 -150 -286 -150 -51 0 -57 3 -115 56 -197 178 -409
262 -682 269 -66 1 -131 1 -145 -2z m-340 -457 c87 -6 113 -13 194 -52 114
-54 204 -171 242 -316 16 -62 34 -89 34 -54 0 26 40 138 67 188 65 120 196
210 338 233 43 7 327 7 360 1 11 -3 33 -5 48 -5 l28 -1 -2 -72 c-1 -40 -7 -95
-14 -123 -10 -44 -8 -58 12 -118 61 -183 62 -369 2 -551 -51 -157 -117 -266
-223 -371 -172 -171 -335 -241 -582 -252 -111 -5 -146 -2 -235 16 -148 32
-275 92 -369 175 -20 17 -49 42 -66 56 -44 37 -96 105 -148 196 -122 210 -156
462 -92 678 15 49 31 96 36 106 6 10 6 30 0 51 -14 49 -20 198 -9 204 5 3 62
9 126 12 65 3 119 7 121 8 2 2 15 1 30 0 15 -2 61 -6 102 -9z"/>
<path d="M1112 2036 c-54 -18 -145 -88 -171 -132 -95 -161 -36 -356 134 -439
92 -45 201 -37 290 20 71 45 102 85 126 166 60 199 -68 383 -275 395 -35 2
-79 -2 -104 -10z m141 -268 c4 -12 2 -27 -4 -34 -22 -27 -69 6 -56 40 10 25
53 21 60 -6z"/>
<path d="M1855 2037 c-144 -48 -219 -150 -219 -297 0 -94 28 -163 91 -221 122
-113 299 -111 417 5 157 153 110 409 -92 498 -57 25 -145 32 -197 15z m165
-267 c6 -11 9 -24 6 -29 -10 -15 -45 -19 -62 -7 -13 10 -14 17 -5 34 15 28 47
28 61 2z"/>
<path d="M771 1765 c-3 -208 153 -393 337 -401 62 -3 133 14 139 32 2 5 -28 9
-66 10 -87 1 -157 33 -241 111 -55 51 -84 97 -133 213 -38 92 -36 89 -36 35z"/>
<path d="M2339 1753 c-48 -148 -136 -256 -256 -315 -57 -28 -77 -33 -143 -33
-59 0 -73 -3 -61 -11 83 -57 251 -32 349 51 73 62 128 174 136 279 5 67 -8 81
-25 29z"/>
<path d="M1535 1648 c-43 -51 -75 -126 -68 -162 8 -46 83 -196 98 -196 23 0
88 118 104 191 7 30 4 46 -15 84 -27 52 -72 115 -84 115 -4 0 -20 -15 -35 -32z"/>
</g>
</svg>
